<?xml version="1.0" standalone="no"?>
<!DOCTYPE svg PUBLIC "-//W3C//DTD SVG 20010904//EN"
 "http://www.w3.org/TR/2001/REC-SVG-20010904/DTD/svg10.dtd">
<svg version="1.0" xmlns="http://www.w3.org/2000/svg"
 width="294.000000pt" height="301.000000pt" viewBox="0 0 294.000000 301.000000"
 preserveAspectRatio="xMidYMid meet">
<metadata>
Created by potrace 1.10, written by Peter Selinger 2001-2011
</metadata>
<g transform="translate(0.000000,301.000000) scale(0.100000,-0.100000)"
fill="#000000" stroke="none">
<path d="M1281 2599 c-261 -56 -512 -228 -656 -449 -94 -144 -166 -347 -169
-479 l-1 -66 593 -3 592 -2 0 -74 c0 -120 2 -120 206 56 98 84 179 158 181
165 5 14 -355 325 -371 320 -7 -2 -12 -36 -14 -85 l-3 -82 -399 0 c-220 0
-400 3 -400 6 0 26 77 133 144 199 138 137 308 205 514 205 364 0 670 -262
746 -640 12 -61 27 -115 33 -121 6 -6 61 -9 139 -7 l129 3 -1 90 c-3 271 -163
568 -413 767 -90 72 -267 159 -381 189 -125 32 -341 36 -469 8z"/>
<path d="M1105 1351 c-93 -82 -171 -156 -173 -163 -2 -12 201 -194 335 -301
38 -31 53 -9 53 79 l0 74 415 0 416 0 -23 -42 c-13 -23 -63 -83 -113 -133
-150 -152 -303 -215 -520 -215 -205 0 -365 63 -508 199 -94 89 -154 185 -197
309 -25 71 -37 93 -54 98 -11 2 -72 3 -135 2 -144 -4 -144 -5 -114 -123 49
-188 134 -337 272 -476 131 -131 275 -217 467 -276 82 -25 103 -27 264 -27
204 -1 280 14 436 88 128 61 206 116 304 215 100 101 167 198 222 321 42 97
90 270 86 310 l-3 25 -607 3 -607 2 -3 88 c-3 79 -5 87 -23 89 -13 1 -78 -49
-190 -146z"/>
</g>
</svg>
